<?xml version="1.0" encoding="UTF-8"?>
<!DOCTYPE svg PUBLIC "-//W3C//DTD SVG 1.1//EN" "http://www.w3.org/Graphics/SVG/1.1/DTD/svg11.dtd">
<svg xmlns="http://www.w3.org/2000/svg" version="1.1" width="2070px" height="2502px" style="shape-rendering:geometricPrecision; text-rendering:geometricPrecision; image-rendering:optimizeQuality; fill-rule:evenodd; clip-rule:evenodd" xmlns:xlink="http://www.w3.org/1999/xlink">
<g><path style="opacity:0.992" fill="#110f10" d="M 1007.5,-0.5 C 1026.17,-0.5 1044.83,-0.5 1063.5,-0.5C 1221.98,11.3104 1350.48,78.977 1449,202.5C 1506.37,277.948 1541.2,362.948 1553.5,457.5C 1654.36,451.168 1748.7,472.668 1836.5,522C 1957.88,595.805 2033.05,702.638 2062,842.5C 2065.34,861.877 2067.84,881.21 2069.5,900.5C 2069.5,919.5 2069.5,938.5 2069.5,957.5C 2061.31,1069.34 2019.65,1166.51 1944.5,1249C 2019.64,1331.49 2061.31,1428.66 2069.5,1540.5C 2069.5,1559.5 2069.5,1578.5 2069.5,1597.5C 2056.59,1749.41 1988.59,1869.57 1865.5,1958C 1771.12,2021.1 1667.12,2047.93 1553.5,2038.5C 1531.5,2202.11 1452.16,2329.28 1315.5,2420C 1232.59,2471.81 1142.25,2498.98 1044.5,2501.5C 1038.17,2501.5 1031.83,2501.5 1025.5,2501.5C 880.824,2496.4 757.99,2442.4 657,2339.5C 578.24,2254.95 531.406,2154.95 516.5,2039.5C 361.237,2049.61 230.07,1998.94 123,1887.5C 45.3961,1800.91 4.22942,1699.24 -0.5,1582.5C -0.5,1573.5 -0.5,1564.5 -0.5,1555.5C 4.46732,1438.21 46.134,1336.21 124.5,1249.5C 46.4487,1162.68 4.78199,1060.68 -0.5,943.5C -0.5,934.167 -0.5,924.833 -0.5,915.5C 6.15315,779.71 59.4865,666.21 159.5,575C 262.34,487.835 381.34,449.502 516.5,460C 536.66,313.959 604.326,195.626 719.5,105C 804.898,41.4724 900.898,6.30578 1007.5,-0.5 Z M 1025.5,299.5 C 1105.62,298.306 1168.45,330.306 1214,395.5C 1226.3,414.928 1235.46,435.761 1241.5,458C 1105.5,458.5 969.5,458.667 833.5,458.5C 851.362,392.637 891.362,345.471 953.5,317C 976.714,307.362 1000.71,301.529 1025.5,299.5 Z M 453.5,761.5 C 473.5,761.5 493.5,761.5 513.5,761.5C 513.333,808.501 513.5,855.501 514,902.5C 517.119,970.643 532.953,1035.64 561.5,1097.5C 527.505,1098.67 493.505,1098.83 459.5,1098C 391.536,1092.96 342.369,1060.13 312,999.5C 286.517,936.896 293.85,878.563 334,824.5C 365.427,787.537 405.26,766.537 453.5,761.5 Z M 1248.5,761.5 C 1248.67,806.168 1248.5,850.835 1248,895.5C 1241.01,983.023 1197.85,1045.19 1118.5,1082C 1094.59,1091.55 1069.92,1097.05 1044.5,1098.5C 963.589,1097.64 901.089,1063.64 857,996.5C 838.794,966.017 828.794,933.017 827,897.5C 826.5,852.168 826.333,806.835 826.5,761.5C 967.167,761.5 1107.83,761.5 1248.5,761.5 Z M 1556.5,761.5 C 1575.5,761.333 1594.5,761.5 1613.5,762C 1682.84,769.742 1731.34,805.576 1759,869.5C 1780.58,933.278 1769.91,990.944 1727,1042.5C 1698.46,1073.19 1663.29,1091.36 1621.5,1097C 1583.85,1098.41 1546.19,1098.91 1508.5,1098.5C 1536.23,1038.91 1552.06,976.246 1556,910.5C 1556.5,860.834 1556.67,811.168 1556.5,761.5 Z M 454.5,1400.5 C 490.168,1400.33 525.835,1400.5 561.5,1401C 532.72,1462.95 516.887,1528.12 514,1596.5C 513.5,1643.83 513.333,1691.17 513.5,1738.5C 497.163,1738.67 480.83,1738.5 464.5,1738C 394.403,1732.54 344.57,1698.04 315,1634.5C 290.872,1569.83 300.538,1510.83 344,1457.5C 373.783,1424.86 410.616,1405.86 454.5,1400.5 Z M 1018.5,1400.5 C 1106.25,1396.95 1173.42,1431.95 1220,1505.5C 1236.95,1535.63 1246.28,1567.96 1248,1602.5C 1248.5,1647.83 1248.67,1693.17 1248.5,1738.5C 1107.83,1738.5 967.167,1738.5 826.5,1738.5C 826.057,1687.81 826.557,1637.15 828,1586.5C 841.102,1503.08 886.602,1445.24 964.5,1413C 982.198,1406.91 1000.2,1402.74 1018.5,1400.5 Z M 1509.5,1400.5 C 1545.5,1400.33 1581.5,1400.5 1617.5,1401C 1691.04,1411.21 1739.87,1451.38 1764,1521.5C 1780.99,1590.19 1763.82,1648.69 1712.5,1697C 1685.98,1719.59 1655.32,1732.92 1620.5,1737C 1599.19,1738.33 1577.86,1738.83 1556.5,1738.5C 1556.67,1688.5 1556.5,1638.5 1556,1588.5C 1552.1,1522.91 1536.6,1460.24 1509.5,1400.5 Z M 832.5,2038.5 C 969.167,2038.33 1105.83,2038.5 1242.5,2039C 1218.18,2122.98 1163.51,2175.32 1078.5,2196C 1000.49,2208.77 934.32,2186.61 880,2129.5C 856.826,2103.16 840.993,2072.82 832.5,2038.5 Z"/></g>
<g><path style="opacity:1" fill="#eeddeb" d="M 1008.5,39.5 C 1142.49,35.319 1259.49,77.1523 1359.5,165C 1444.87,244.558 1495.87,342.392 1512.5,458.5C 1435.83,458.5 1359.17,458.5 1282.5,458.5C 1265.46,383.311 1223.46,326.811 1156.5,289C 1089.23,254.982 1019.89,250.315 948.5,275C 857.087,313.288 803.587,381.455 788,479.5C 786.346,622.144 786.013,764.811 787,907.5C 794.877,985.111 830.043,1046.94 892.5,1093C 924.84,1115.33 960.507,1129.66 999.5,1136C 1029.83,1137.93 1060.16,1139.93 1090.5,1142C 1222.3,1159.13 1329.8,1218.96 1413,1321.5C 1476.72,1402.98 1511.06,1495.64 1516,1599.5C 1516.67,1734.5 1516.67,1869.5 1516,2004.5C 1505.03,2151.64 1442.19,2270.8 1327.5,2362C 1214.25,2445.23 1087.91,2475.56 948.5,2453C 804.767,2423.44 694.933,2346.27 619,2221.5C 586.433,2164.63 565.933,2103.63 557.5,2038.5C 635.5,2038.5 713.5,2038.5 791.5,2038.5C 810.101,2123.21 858.768,2183.71 937.5,2220C 1018.49,2252.31 1096.49,2246.31 1171.5,2202C 1238.27,2157.99 1276.77,2096.15 1287,2016.5C 1288.65,1875.18 1288.98,1733.85 1288,1592.5C 1278.82,1502.59 1235.32,1435.09 1157.5,1390C 1128.79,1374.59 1098.12,1364.92 1065.5,1361C 912.138,1365.36 782.972,1312.19 678,1201.5C 602.323,1115.75 560.989,1015.42 554,900.5C 553.333,766.5 553.333,632.5 554,498.5C 562.346,368.66 613.179,258.827 706.5,169C 791.951,91.1267 892.618,47.9601 1008.5,39.5 Z M 1025.5,299.5 C 1000.71,301.529 976.714,307.362 953.5,317C 891.362,345.471 851.362,392.637 833.5,458.5C 969.5,458.667 1105.5,458.5 1241.5,458C 1235.46,435.761 1226.3,414.928 1214,395.5C 1168.45,330.306 1105.62,298.306 1025.5,299.5 Z M 832.5,2038.5 C 840.993,2072.82 856.826,2103.16 880,2129.5C 934.32,2186.61 1000.49,2208.77 1078.5,2196C 1163.51,2175.32 1218.18,2122.98 1242.5,2039C 1105.83,2038.5 969.167,2038.33 832.5,2038.5 Z"/></g>
<g><path style="opacity:1" fill="#e8dbeb" d="M 568.5,1138.5 C 588.076,1193.67 615.909,1244.01 652,1289.5C 672.397,1314.58 696.897,1334.41 725.5,1349C 735.298,1353.41 745.298,1356.91 755.5,1359.5C 647.819,1359.97 540.152,1359.47 432.5,1358C 299.098,1343.41 193.598,1281.91 116,1173.5C 35.4376,1050 19.1043,918.333 67,778.5C 121.102,644.396 217.269,556.229 355.5,514C 407.39,500.271 460.057,495.771 513.5,500.5C 513.5,574.167 513.5,647.833 513.5,721.5C 489.831,721.333 466.164,721.5 442.5,722C 357.708,734.808 299.541,780.975 268,860.5C 244.346,936.846 257.679,1005.85 308,1067.5C 344.823,1108.33 390.657,1131.83 445.5,1138C 486.499,1138.5 527.499,1138.67 568.5,1138.5 Z"/></g>
<g><path style="opacity:1" fill="#e8dbeb" d="M 826.5,498.5 C 1091.5,498.333 1356.5,498.5 1621.5,499C 1760.3,509.629 1870.47,570.795 1952,682.5C 2025.41,792.059 2046.41,911.059 2015,1039.5C 1996.36,1108.18 1963.19,1168.52 1915.5,1220.5C 1855.57,1166.69 1786.24,1129.86 1707.5,1110C 1780.11,1063.63 1814.27,997.129 1810,910.5C 1800.13,834.018 1761.3,777.852 1693.5,742C 1670.73,730.973 1646.73,724.306 1621.5,722C 1356.5,721.5 1091.5,721.333 826.5,721.5C 826.5,647.167 826.5,572.833 826.5,498.5 Z"/></g>
<g><path style="opacity:0.99" fill="#000000" d="M 1248.5,761.5 C 1261.83,761.5 1275.17,761.5 1288.5,761.5C 1288.67,806.501 1288.5,851.501 1288,896.5C 1282.78,982.316 1244.94,1049.32 1174.5,1097.5C 1131.24,1098.49 1087.91,1098.83 1044.5,1098.5C 1069.92,1097.05 1094.59,1091.55 1118.5,1082C 1197.85,1045.19 1241.01,983.023 1248,895.5C 1248.5,850.835 1248.67,806.168 1248.5,761.5 Z"/></g>
<g><path style="opacity:1" fill="#e8dbeb" d="M 1288.5,761.5 C 1364.5,761.5 1440.5,761.5 1516.5,761.5C 1516.67,810.501 1516.5,859.501 1516,908.5C 1511.63,975.163 1494.47,1038.16 1464.5,1097.5C 1367.74,1098.83 1271.07,1098.83 1174.5,1097.5C 1244.94,1049.32 1282.78,982.316 1288,896.5C 1288.5,851.501 1288.67,806.501 1288.5,761.5 Z"/></g>
<g><path style="opacity:0.993" fill="#000000" d="M 1516.5,761.5 C 1529.83,761.5 1543.17,761.5 1556.5,761.5C 1556.67,811.168 1556.5,860.834 1556,910.5C 1552.06,976.246 1536.23,1038.91 1508.5,1098.5C 1493.66,1098.83 1478.99,1098.5 1464.5,1097.5C 1494.47,1038.16 1511.63,975.163 1516,908.5C 1516.5,859.501 1516.67,810.501 1516.5,761.5 Z"/></g>
<g><path style="opacity:1" fill="#7a737c" d="M 568.5,1138.5 C 573.762,1138.2 578.928,1138.53 584,1139.5C 642.995,1240.25 726.161,1313.58 833.5,1359.5C 811.673,1360.5 789.673,1360.83 767.5,1360.5C 763.481,1360.35 759.481,1360.02 755.5,1359.5C 745.298,1356.91 735.298,1353.41 725.5,1349C 696.897,1334.41 672.397,1314.58 652,1289.5C 615.909,1244.01 588.076,1193.67 568.5,1138.5 Z"/></g>
<g><path style="opacity:1" fill="#e8dbeb" d="M 1237.5,1139.5 C 1365.33,1138.33 1493.33,1138.17 1621.5,1139C 1760.29,1149.62 1870.45,1210.79 1952,1322.5C 2025.41,1432.03 2046.41,1551.03 2015,1679.5C 1977.38,1810.61 1896.88,1905.11 1773.5,1963C 1704.13,1992.57 1631.8,2004.41 1556.5,1998.5C 1556.5,1925.17 1556.5,1851.83 1556.5,1778.5C 1579.53,1778.87 1602.53,1778.37 1625.5,1777C 1702,1766.14 1757.5,1726.3 1792,1657.5C 1821.48,1589.11 1817.48,1522.77 1780,1458.5C 1743.48,1402.64 1691.98,1370.14 1625.5,1361C 1579.18,1359.9 1532.85,1359.06 1486.5,1358.5C 1427.5,1258.16 1344.5,1185.16 1237.5,1139.5 Z"/></g>
<g><path style="opacity:1" fill="#e8dbeb" d="M 153.5,1277.5 C 213.934,1331.73 283.934,1368.73 363.5,1388.5C 284.836,1440.89 252.003,1514.22 265,1608.5C 284.415,1692.25 335.249,1746.75 417.5,1772C 428.677,1774.74 440.011,1776.74 451.5,1778C 717.166,1778.5 982.833,1778.67 1248.5,1778.5C 1248.5,1851.83 1248.5,1925.17 1248.5,1998.5C 976.5,1998.67 704.5,1998.5 432.5,1998C 294.927,1982.67 187.427,1918.17 110,1804.5C 40.2306,1692.61 22.8973,1572.94 58,1445.5C 77.7444,1382.31 109.578,1326.31 153.5,1277.5 Z"/></g>
<g><path style="opacity:1" fill="#605c62" d="M 833.5,1359.5 C 835.593,1360.04 837.593,1360.88 839.5,1362C 815.311,1362.91 791.311,1362.41 767.5,1360.5C 789.673,1360.83 811.673,1360.5 833.5,1359.5 Z"/></g>
<g><path style="opacity:1" fill="#756c72" d="M 606.5,1400.5 C 704.332,1399.33 802.332,1399.17 900.5,1400C 899.956,1400.72 899.289,1401.22 898.5,1401.5C 801.335,1400.5 704.001,1400.17 606.5,1400.5 Z"/></g>
<g><path style="opacity:1" fill="#e8dbeb" d="M 606.5,1400.5 C 704.001,1400.17 801.335,1400.5 898.5,1401.5C 833.8,1446.18 796.633,1507.85 787,1586.5C 786.5,1637.17 786.333,1687.83 786.5,1738.5C 708.833,1738.5 631.167,1738.5 553.5,1738.5C 553.333,1691.5 553.5,1644.5 554,1597.5C 557.651,1528.05 575.151,1462.38 606.5,1400.5 Z"/></g>
</svg>
